P2
16 17
255
  71  71  71  69  70  78  79  72  71  77  86  83  88  89  79  82 
  71  71  71  70  69  77  83  75  71  79  88  90  89  84  77  80  
  73  73  73  74  72  76  83  79  77  85  94  95  85  80  77  83 
  73  73  78  85  78  77  79  78  79  88  95  88  83  81  79  83  
  74  76  86  86  78  76  79  77  75  82  89  84  81  79  76  78 
  76  78  79  68  61  68  72  74  74  78  84  82  80  78  74  74 
  76  76  66  46  40  56  66  70  73  76  77  78  76  74  72  72 
  74  71  60  46  40  46  61  69  73  74  76  76  74  72  72  73 
  74  71  61  53  51  54  63  73  77  77  76  75  75  74  74  78  
  79  72  57  50  52  62  72  82  82  78  76  75  77  78  79  86 
  79  67  45  41  42  53  72  81  79  76  74  74  75  75  74  77  
  61  51  39  36  36  36  60  72  73  72  70  70  71  70  66  65 
  43  42  37  35  34  34  50  68  70  70  69  69  69  68  64  60  
  40  41  38  34  33  33  43  63  69  71  70  70  67  65  61  59 
  40  41  39  34  33  33  39  58  68  71  70  69  67  66  61  60  
  38  41  36  34  34  33  39  59  68  70  70  69  67  67  64  61  
  38  38  35  35  35  33  37  56  69  74  72  69  68  66  62  60  