P2
18 9
255
0 0 0 0 0 0 0 0 0 0 0 0 0 0 0 0 0 0
0 0 0 0 0 0 0 0 0 100 100 100 100 0 0 160 160 160
160 0 0 130 0 130 0 0 0 100 0 0 0 0 0 160 0 0
160 0 0 0 130 0 0 0 0 100 0 100 100 0 0 160 0 0
160 0 0 0 130 0 0 0 0 100 0 0 100 0 0 160 160 160
160 0 0 0 130 0 0 0 0 100 100 100 100 0 0 160 0 0
160 0 0 0 130 0 0 0 0 0 0 0 0 0 0 0 0 0
0 0 0 0 0 0 0 0 0 0 0 0 0 0 0 0 0 0
0 0 0 0 0 0 0 0 0 0 0 0 0 0 0 0 0 0
