P2
18 9
255
0 0 0 0 0 0 0 0 0 0 0 0 0 0 0 0 0 0
0 0 0 0 0 0 0 0 0 25 50 50 50 25 0 40 80 80
105 90 50 83 58 33 73 80 80 105 65 0 33 33 33 73 40 0
65 65 0 0 33 33 40 40 0 65 65 25 50 58 33 40 40 0
65 65 25 50 58 33 40 40 0 65 65 0 25 58 33 40 80 80
105 65 0 25 58 33 40 80 80 105 90 50 50 58 33 40 40 0
65 90 50 50 58 33 40 40 0 40 40 0 0 33 33 0 0 0
0 0 0 0 0 0 0 0 0 0 0 0 0 0 0 0 0 0
0 0 0 0 0 0 0 0 0 0 0 0 0 0 0 0 0 0