P2
18 7
255
0 0 0 0 0 0 0 0 0 0 0 25 50 50 50 25 0 40
105 130 130 90 25 33 73 113 113 80 40 25 58 33 33 33 0 40
65 25 40 40 0 0 73 73 0 40 40 25 50 58 83 25 0 40
65 50 65 90 25 0 73 73 0 40 40 25 25 33 58 50 0 40
105 105 80 65 50 0 73 113 80 80 40 0 50 83 83 25 0 40
80 50 90 90 25 0 73 145 0 40 40 0 0 33 65 0 0 0
0 0 0 0 0 0 0 0 0 0 0 0 0 0 0 0 0 0