P2
18 9
255
0 0 0 0 0 0 0 0 0 0 0 0 0 0 0 0 0 0
8 12 16 16 12 14 17 19 26 34 31 34 28 22 25 27 24 31
38 35 38 32 22 31 34 31 37 44 42 44 43 28 36 39 36 37
48 50 56 55 36 51 49 42 44 46 44 47 51 29 42 38 28 18
25 29 37 47 22 42 44 42 38 46 44 46 55 28 40 43 41 32
48 50 55 59 34 50 48 42 38 50 48 50 59 32 40 43 41 32
44 42 43 47 26 35 38 36 32 40 38 35 39 22 25 21 17 6
14 18 22 28 17 20 16 12 6 6 6 6 12 5 5 5 5 0
0 0 0 0 0 0 0 0 0 0 0 0 0 0 0 0 0 0